# xmcd CD database file
#
# Track frame offsets:
#	150
#	21170
#	40407
#	56722
#	73770
#	95020
#	117327
#	143875
#	163175
#	186580
#	219017
#
# Disc length: 3256 seconds
#
# Revision: 0
# Processed by: cddbd v1.5.2PL0 Copyright (c) Steve Scherf et al.
# Submitted via: CDex 1.70beta2
#
DISCID=a70cb60b
DTITLE=John Lewis Featuring Hank Jones - Piano Playhouse
DYEAR=2002
DGENRE=Jazz
TTITLE0=mirjana
TTITLE1=django
TTITLE2=natural affection
TTITLE3=p.o.v.
TTITLE4=sacha's march
TTITLE5=st. louis blues
TTITLE6=odds against tomorrow
TTITLE7=willow weep for me
TTITLE8=confirmation
TTITLE9=I'll remember april
TTITLE10=la rondo
EXTD=YEAR: 2002
EXTT0=
EXTT1=
EXTT2=
EXTT3=
EXTT4=
EXTT5=
EXTT6=
EXTT7=
EXTT8=
EXTT9=
EXTT10=
PLAYORDER=
